<svg xmlns="http://www.w3.org/2000/svg" width="277.343" height="72" viewBox="0 0 277.343 72">
  <g id="Group_13" data-name="Group 13" transform="translate(-57 -54)">
    <g id="Group_8" data-name="Group 8" transform="translate(57 54)">
      <g id="Group_5" data-name="Group 5" transform="translate(46.016 23.17)">
        <g id="Group_4" data-name="Group 4">
          <g id="Group_1" data-name="Group 1">
            <path id="Path_1" data-name="Path 1" d="M186.941,120.664a5.83,5.83,0,0,1,1.347-.65,3.792,3.792,0,0,1,1.113-.187,1.4,1.4,0,0,1,1.323.7,5.282,5.282,0,0,1,.395,2.414v8.171a35.972,35.972,0,0,1,7.846-8.217,13.23,13.23,0,0,1,7.659-2.508,11.173,11.173,0,0,1,4.573.744,2.3,2.3,0,0,1,1.6,2.089,24.166,24.166,0,0,1-1.347,4.6q-1.161,3.3-1.9,5.525-.186.6-.51,1.764-1.252,4.085-2.786,4.084a1.576,1.576,0,0,1-1.045-.417,9.2,9.2,0,0,1-1.414-1.949,11.2,11.2,0,0,0-2.554-2.9,4.373,4.373,0,0,0-2.506-.72,6.534,6.534,0,0,0-5.595,2.6q-1.926,2.6-1.926,7.567v11.142a7.037,7.037,0,0,0,.487,2.879,4.653,4.653,0,0,0,1.6,1.857,11.556,11.556,0,0,0,1.207.789q2.321,1.394,2.321,3.111a2.942,2.942,0,0,1-.951,2.3,3.7,3.7,0,0,1-2.577.86H175.427a4.138,4.138,0,0,1-2.762-.882,2.936,2.936,0,0,1-1.045-2.367q0-1.811,2.554-3.2.881-.512,1.3-.79a4.512,4.512,0,0,0,1.717-1.926,7.39,7.39,0,0,0,.511-2.994V137.1a4.67,4.67,0,0,0-.395-2.32,3.368,3.368,0,0,0-1.741-1.069,1.8,1.8,0,0,0-.371-.138q-2.973-1.116-2.971-2.741a2.241,2.241,0,0,1,.812-1.577,24.1,24.1,0,0,1,3.644-2.507Z" transform="translate(-170.975 -119.182)" fill="#ee562a"/>
            <path id="Path_2" data-name="Path 2" d="M192.983,166.626H175.109a4.787,4.787,0,0,1-3.177-1.033,3.57,3.57,0,0,1-1.273-2.861c0-1.458.973-2.726,2.89-3.771.556-.323.98-.579,1.25-.759a3.909,3.909,0,0,0,1.486-1.654,6.785,6.785,0,0,0,.455-2.729V136.78a3.982,3.982,0,0,0-.289-1.968,2.733,2.733,0,0,0-1.413-.811,1.735,1.735,0,0,0-.308-.12c-2.327-.87-3.468-1.994-3.468-3.368a2.866,2.866,0,0,1,1.008-2.042,24.381,24.381,0,0,1,3.758-2.6l10.259-6.08a6.427,6.427,0,0,1,1.494-.716,4.451,4.451,0,0,1,1.3-.215,2.023,2.023,0,0,1,1.885,1.023,5.785,5.785,0,0,1,.478,2.732v6.261a33.382,33.382,0,0,1,6.835-6.837,13.92,13.92,0,0,1,8.027-2.623,11.642,11.642,0,0,1,4.845.805,2.9,2.9,0,0,1,1.975,2.674c0,.395-.158,1.3-1.384,4.808q-1.159,3.292-1.9,5.516c-.119.386-.287.968-.5,1.735-.955,3.113-2.037,4.555-3.407,4.555a2.208,2.208,0,0,1-1.466-.574,9.433,9.433,0,0,1-1.546-2.1,10.646,10.646,0,0,0-2.362-2.7,3.713,3.713,0,0,0-2.146-.608,5.875,5.875,0,0,0-5.077,2.338c-1.194,1.612-1.8,4.028-1.8,7.182v11.142a6.449,6.449,0,0,0,.428,2.611,4.029,4.029,0,0,0,1.388,1.6,10.806,10.806,0,0,0,1.16.758c1.754,1.054,2.641,2.287,2.641,3.669a3.577,3.577,0,0,1-1.165,2.777A4.343,4.343,0,0,1,192.983,166.626Zm-3.9-46.472a3.124,3.124,0,0,0-.921.159,5.3,5.3,0,0,0-1.2.58l-.013.007-10.26,6.082a22.521,22.521,0,0,0-3.523,2.415,1.659,1.659,0,0,0-.616,1.116c0,.972,1.388,1.7,2.553,2.136a1.943,1.943,0,0,1,.427.161,3.784,3.784,0,0,1,2,1.293,5.071,5.071,0,0,1,.5,2.676v17.039a8.04,8.04,0,0,1-.569,3.258,5.177,5.177,0,0,1-1.953,2.2c-.281.186-.727.458-1.328.807-1.486.809-2.233,1.7-2.233,2.645a2.3,2.3,0,0,0,.814,1.873,3.492,3.492,0,0,0,2.346.73h17.874a3.062,3.062,0,0,0,2.144-.692,2.31,2.31,0,0,0,.739-1.819c0-.9-.676-1.758-2.008-2.558a11.707,11.707,0,0,1-1.272-.835,5.265,5.265,0,0,1-1.792-2.1,7.587,7.587,0,0,1-.545-3.147V143.047c0-3.436.691-6.111,2.054-7.951a7.172,7.172,0,0,1,6.113-2.86,5.02,5.02,0,0,1,2.867.83,11.64,11.64,0,0,1,2.726,3.073,8.432,8.432,0,0,0,1.3,1.823.944.944,0,0,0,.625.263c.247,0,1.136-.263,2.169-3.628.214-.767.385-1.362.511-1.767q.749-2.252,1.911-5.547a22.183,22.183,0,0,0,1.311-4.382c0-.4-.127-.993-1.228-1.5a10.6,10.6,0,0,0-4.3-.686,12.659,12.659,0,0,0-7.293,2.394,35.565,35.565,0,0,0-7.694,8.069l-1.165,1.575V122.62a4.577,4.577,0,0,0-.312-2.1A.752.752,0,0,0,189.083,120.155Z" transform="translate(-170.658 -118.864)" fill="#ee562a"/>
          </g>
          <g id="Group_2" data-name="Group 2" transform="translate(37.423 0.651)">
            <path id="Path_3" data-name="Path 3" d="M261.595,161.977a38.488,38.488,0,0,1-8.914,4.3,29.451,29.451,0,0,1-9.052,1.414q-7.2,0-11.677-3.691a11.7,11.7,0,0,1-4.48-9.446,13.605,13.605,0,0,1,6.337-11.815q6.337-4.341,17.34-4.341,1.347,0,2.089.023c.495.016.929.023,1.3.023q-1.391-5.384-3.5-7.381t-6.2-2a13.532,13.532,0,0,0-7.15,2.322q-3.715,2.323-4.5,2.321a1.979,1.979,0,0,1-1.557-.65,2.476,2.476,0,0,1-.58-1.717q0-3.574,5.687-7.057A24.343,24.343,0,0,1,249.71,120.8q7.242,0,11.514,3.737t7.009,12.511l4.688,14.763a16.827,16.827,0,0,0,2.554,5.571,4.18,4.18,0,0,0,3.344,1.717,2.962,2.962,0,0,0,1.857-.7,1.124,1.124,0,0,1,.417-.233q.511,0,.9.882a5.191,5.191,0,0,1,.395,2.134,5.031,5.031,0,0,1-2.622,4.435,13.23,13.23,0,0,1-7.081,1.647,14.342,14.342,0,0,1-6.22-1.3A13.756,13.756,0,0,1,261.595,161.977Zm-4.457-14.9a3.427,3.427,0,0,0-1.741-2.136,8.084,8.084,0,0,0-3.6-.649,10.409,10.409,0,0,0-6.917,2.182,7.2,7.2,0,0,0-2.6,5.8,6.934,6.934,0,0,0,2.345,5.432,8.833,8.833,0,0,0,6.1,2.089,10.66,10.66,0,0,0,5.989-1.485,4.546,4.546,0,0,0,2.227-3.948c-.031-.308-.07-.641-.115-1a11.977,11.977,0,0,0-.3-1.417Z" transform="translate(-226.827 -120.154)" fill="#ee562a"/>
            <path id="Path_4" data-name="Path 4" d="M243.311,168.015c-4.928,0-9-1.291-12.087-3.838a12.361,12.361,0,0,1-4.715-9.945,14.272,14.272,0,0,1,6.618-12.346c4.315-2.956,10.271-4.455,17.7-4.455q1.361,0,2.11.023l.434.012c-.854-3.013-1.9-5.116-3.1-6.257-1.279-1.207-3.215-1.82-5.754-1.82a12.978,12.978,0,0,0-6.808,2.223c-3.408,2.133-4.362,2.42-4.845,2.42a2.6,2.6,0,0,1-2.037-.867,3.108,3.108,0,0,1-.744-2.146c0-2.613,2.017-5.172,6-7.608a25.085,25.085,0,0,1,13.311-3.576c4.966,0,8.983,1.311,11.939,3.9,2.923,2.56,5.346,6.868,7.2,12.8l4.686,14.76a16.348,16.348,0,0,0,2.44,5.36,3.54,3.54,0,0,0,2.842,1.477,2.318,2.318,0,0,0,1.457-.557,1.432,1.432,0,0,1,.817-.371c.617,0,1.12.425,1.495,1.265a5.868,5.868,0,0,1,.45,2.4,5.657,5.657,0,0,1-2.923,4.98,13.906,13.906,0,0,1-7.426,1.747,15.056,15.056,0,0,1-6.5-1.362,14.24,14.24,0,0,1-4.736-3.727,38.8,38.8,0,0,1-8.578,4.059A30.211,30.211,0,0,1,243.311,168.015Zm7.52-29.293c-7.167,0-12.879,1.423-16.975,4.227a12.892,12.892,0,0,0-6.057,11.282,10.987,10.987,0,0,0,4.245,8.949c2.854,2.351,6.644,3.543,11.266,3.543a28.967,28.967,0,0,0,8.855-1.384,38,38,0,0,0,8.764-4.224l.492-.314.362.456a13.189,13.189,0,0,0,4.646,3.811,13.745,13.745,0,0,0,5.943,1.238,12.669,12.669,0,0,0,6.739-1.549,4.387,4.387,0,0,0,2.319-3.887,4.6,4.6,0,0,0-.338-1.871,1.58,1.58,0,0,0-.273-.45l-.085.06a3.568,3.568,0,0,1-2.233.817,4.816,4.816,0,0,1-3.844-1.955,17.188,17.188,0,0,1-2.671-5.792L267.3,136.925c-1.783-5.71-4.077-9.821-6.819-12.223-2.714-2.372-6.445-3.576-11.09-3.576a23.812,23.812,0,0,0-12.639,3.387c-3.568,2.184-5.378,4.373-5.378,6.506a1.848,1.848,0,0,0,.414,1.286,1.334,1.334,0,0,0,1.075.436c.107-.005.823-.136,4.162-2.223a14.215,14.215,0,0,1,7.491-2.42c2.879,0,5.113.731,6.64,2.173s2.718,3.945,3.687,7.689l.208.807h-.834c-.377,0-.819-.007-1.321-.023S251.721,138.722,250.831,138.722Zm-.417,21.4a9.5,9.5,0,0,1-6.534-2.253,7.586,7.586,0,0,1-2.56-5.914,7.845,7.845,0,0,1,2.83-6.3,11.081,11.081,0,0,1,7.332-2.333,8.584,8.584,0,0,1,3.891.721,4.064,4.064,0,0,1,2.065,2.518l0,.015,1.393,4.873a12.945,12.945,0,0,1,.322,1.509c.046.367.086.7.117,1.017a5.193,5.193,0,0,1-2.511,4.55A11.322,11.322,0,0,1,250.413,160.123Zm1.067-15.507a9.842,9.842,0,0,0-6.5,2.03,6.53,6.53,0,0,0-2.369,5.31,6.265,6.265,0,0,0,2.129,4.951,8.251,8.251,0,0,0,5.675,1.924,10.084,10.084,0,0,0,5.632-1.376,3.9,3.9,0,0,0,1.94-3.411c-.027-.237-.064-.565-.11-.915a11.381,11.381,0,0,0-.286-1.335l-1.386-4.851a2.786,2.786,0,0,0-1.415-1.748A7.533,7.533,0,0,0,251.481,144.617Z" transform="translate(-226.509 -119.836)" fill="#ee562a"/>
          </g>
          <g id="Group_3" data-name="Group 3" transform="translate(86.359 0.279)">
            <path id="Path_5" data-name="Path 5" d="M306.307,138.4a5.72,5.72,0,0,0-.44-2.739,3.783,3.783,0,0,0-1.834-1.254q-.233-.092-.744-.278-2.785-1.116-2.785-2.879a3.134,3.134,0,0,1,1.207-2.159,18.222,18.222,0,0,1,3.667-2.484l10.167-5.525a6.658,6.658,0,0,1,1.324-.626,3.619,3.619,0,0,1,1.137-.21,1.355,1.355,0,0,1,1.252.6,6.084,6.084,0,0,1,.465,2.508l.279,5.523a24.365,24.365,0,0,1,5.9-6.382,11.354,11.354,0,0,1,14.576,2q3.483,3.783,5.293,11.118l2.646,10.538q.139.558.417,1.626,2.416,9.608,4.178,11.327a8.432,8.432,0,0,0,1.439,1.16q2.091,1.441,2.089,2.926a2.727,2.727,0,0,1-1.207,2.459,7.225,7.225,0,0,1-3.853.79h-14.53a8.57,8.57,0,0,1-4.155-.72,2.623,2.623,0,0,1-1.184-2.437,2.98,2.98,0,0,1,.417-1.6,5.958,5.958,0,0,1,1.579-1.509,13.591,13.591,0,0,1,1.16-.742q2.183-1.3,2.183-2.6a32.887,32.887,0,0,0-.859-5.8q-.859-4.085-2.3-9.284-1.858-6.64-3.482-8.845a5.025,5.025,0,0,0-4.225-2.2,5.359,5.359,0,0,0-4.573,2.345,10.7,10.7,0,0,0-1.694,6.384v15.319a6.6,6.6,0,0,0,.511,2.833,5.27,5.27,0,0,0,1.717,1.949q.417.278,1.254.742,2.227,1.255,2.227,3.019a2.876,2.876,0,0,1-1,2.3,3.881,3.881,0,0,1-2.623.86H304.218a3.7,3.7,0,0,1-2.577-.86,2.942,2.942,0,0,1-.951-2.3q0-1.764,2.274-3.019a15.037,15.037,0,0,0,1.3-.789,4.469,4.469,0,0,0,1.577-1.857,7.361,7.361,0,0,0,.464-2.879Z" transform="translate(-299.859 -119.599)" fill="#ee562a"/>
            <path id="Path_6" data-name="Path 6" d="M351.16,166.764H336.63a9.042,9.042,0,0,1-4.491-.813,3.239,3.239,0,0,1-1.494-2.988,3.644,3.644,0,0,1,.513-1.941,6.492,6.492,0,0,1,1.752-1.695,13.817,13.817,0,0,1,1.21-.774c1.219-.726,1.864-1.433,1.864-2.044a32.594,32.594,0,0,0-.846-5.671c-.566-2.694-1.336-5.8-2.288-9.244-1.213-4.33-2.35-7.235-3.379-8.634a4.376,4.376,0,0,0-3.706-1.943,4.707,4.707,0,0,0-4.05,2.077,10.128,10.128,0,0,0-1.573,6.006v15.318a6.024,6.024,0,0,0,.449,2.555,4.645,4.645,0,0,0,1.516,1.707c.246.164.649.4,1.186.7,1.7.955,2.559,2.161,2.559,3.581a3.508,3.508,0,0,1-1.221,2.787,4.525,4.525,0,0,1-3.044,1.014H303.9a4.343,4.343,0,0,1-3.009-1.025,3.577,3.577,0,0,1-1.165-2.777c0-1.425.877-2.629,2.608-3.583.529-.295.944-.545,1.24-.754a3.833,3.833,0,0,0,1.358-1.585,6.773,6.773,0,0,0,.412-2.622V138.078a4.992,4.992,0,0,0-.342-2.395,3.137,3.137,0,0,0-1.528-1c-.147-.056-.391-.148-.724-.269-2.137-.854-3.21-2.026-3.21-3.485a3.747,3.747,0,0,1,1.409-2.629,18.925,18.925,0,0,1,3.8-2.58l10.171-5.526a7.213,7.213,0,0,1,1.428-.672,4.225,4.225,0,0,1,1.34-.242,1.969,1.969,0,0,1,1.8.91,6.384,6.384,0,0,1,.559,2.815l.187,3.694a21.988,21.988,0,0,1,4.987-5.06,12,12,0,0,1,15.408,2.1c2.383,2.59,4.215,6.426,5.444,11.4l2.647,10.535c.092.375.23.913.416,1.621,1.96,7.8,3.258,10.3,4,11.028a7.983,7.983,0,0,0,1.353,1.09c1.574,1.085,2.371,2.247,2.371,3.459a3.346,3.346,0,0,1-1.5,3A7.738,7.738,0,0,1,351.16,166.764Zm-25.393-37.037a5.661,5.661,0,0,1,4.745,2.466c1.139,1.548,2.31,4.509,3.583,9.055.96,3.468,1.735,6.605,2.308,9.326a33.054,33.054,0,0,1,.874,5.935c0,1.122-.817,2.154-2.5,3.155a12.642,12.642,0,0,0-1.1.7,5.31,5.31,0,0,0-1.421,1.335,2.343,2.343,0,0,0-.319,1.261,2,2,0,0,0,.872,1.884,7.757,7.757,0,0,0,3.821.626h14.53a6.694,6.694,0,0,0,3.5-.683,2.1,2.1,0,0,0,.917-1.92c0-.761-.609-1.567-1.81-2.393a8.878,8.878,0,0,1-1.553-1.262c-1.246-1.211-2.669-5.017-4.325-11.6-.184-.711-.326-1.254-.417-1.628l-2.647-10.535c-1.176-4.764-2.905-8.411-5.141-10.839a10.711,10.711,0,0,0-13.744-1.9,23.868,23.868,0,0,0-5.724,6.214l-1.079,1.548-.373-7.408a5.337,5.337,0,0,0-.371-2.2c-.084-.137-.241-.3-.7-.3a2.991,2.991,0,0,0-.933.177,6.147,6.147,0,0,0-1.2.567l-10.192,5.539a17.751,17.751,0,0,0-3.532,2.386,2.579,2.579,0,0,0-1,1.689c0,.881.8,1.647,2.378,2.28.328.118.582.212.739.275a4.343,4.343,0,0,1,2.144,1.508,6.057,6.057,0,0,1,.542,3.086v16.341a8,8,0,0,1-.518,3.137,5.121,5.121,0,0,1-1.8,2.126,15.816,15.816,0,0,1-1.36.827c-1.309.721-1.943,1.524-1.943,2.454a2.308,2.308,0,0,0,.739,1.819,3.062,3.062,0,0,0,2.144.692h17.688a3.234,3.234,0,0,0,2.2-.7,2.241,2.241,0,0,0,.773-1.808c0-.933-.622-1.736-1.9-2.456-.575-.319-1.008-.576-1.295-.768a5.95,5.95,0,0,1-1.942-2.209,7.147,7.147,0,0,1-.575-3.111V139.1a11.356,11.356,0,0,1,1.818-6.762A5.994,5.994,0,0,1,325.766,129.727Z" transform="translate(-299.541 -119.281)" fill="#ee562a"/>
          </g>
        </g>
      </g>
      <g id="Group_6" data-name="Group 6" transform="translate(0 0)">
        <path id="Path_7" data-name="Path 7" d="M142.718,126.582l.553.482a13.228,13.228,0,0,0,1.954,1.518,2.5,2.5,0,0,0,2.081.246,2.786,2.786,0,0,0,1.654-1.609c.473-1.1.361-2.233-.385-3.9-1.061-2.378-2.163-4.739-3.267-7.1q-.949-2.027-1.89-4.061a3.668,3.668,0,0,0-2.425-2.13,3,3,0,0,0-2.692.937l-.184.17a20.83,20.83,0,0,1-3.314,2.645,4.847,4.847,0,0,1-4.936.22,5.06,5.06,0,0,1-2.414-4.424c-.019-1.109-.055-2.224.007-3.332.044-.789.144-1.575.244-2.359.436-3.425.569-7.887,4.144-9.576a8.783,8.783,0,0,1,3.478-.44q2.01-.061,4.02.02c5.033.2,11.526.5,15.2,4.461,1.117,1.2,1.894,2.686,3.005,3.894a4.75,4.75,0,0,0,4.343,1.774A4.21,4.21,0,0,0,164.727,101c1.268-4.3-.61-9.575-2.93-13.167a7.379,7.379,0,0,0-.874-1.121c-1.56-1.617-3.338-1.568-6.576-1.315-.461.035-.936.07-1.428.1-6.955.445-13.167.545-20.136.455s-12.4-.7-19.36-.7c-1.4,0-2.781.04-4.148.139a11.43,11.43,0,0,0-4.075.783c-1.071.482-2.225,1.3-2.251,2.15-.05,1.594,1.137,2.505,3.094,3.819l.574.387c2.944,2.019,3.77,4.835,4.222,7.578a135.893,135.893,0,0,1,.846,36l-.062.611c-.285,2.858-.641,6.417-2.478,8.9a11.572,11.572,0,0,1-1.964,1.941c-1.236,1.037-1.936,1.682-1.936,2.9,0,1.031.315,2.507,3.035,3.45,2.789.953,6.984,1.437,12.462,1.437a45.211,45.211,0,0,0,11-.946,5.5,5.5,0,0,0,3-1.581,3.588,3.588,0,0,0,1.027-2.556c0-.971-.349-2.367-3.371-3.288a7.927,7.927,0,0,1-3.076-1.439,5.174,5.174,0,0,1-1.327-2.706c-.155-.782-.27-3.576-.442-8.807l-.082-3.043q0-1.679,0-3.356a15.182,15.182,0,0,1,.194-2.332,3.743,3.743,0,0,1,3.529-3.419,14.371,14.371,0,0,1,3.744.161C138.178,122.614,140.486,124.631,142.718,126.582Z" transform="translate(-102.301 -84.603)" fill="#ee562a"/>
        <path id="Path_8" data-name="Path 8" d="M120.424,155.665c-5.55,0-9.813-.5-12.671-1.471-2.337-.811-3.472-2.139-3.472-4.063,0-1.575,1-2.416,2.167-3.392a11.016,11.016,0,0,0,1.86-1.833c1.729-2.332,2.075-5.79,2.353-8.568l.063-.616a135.384,135.384,0,0,0-.84-35.831c-.43-2.6-1.205-5.269-3.951-7.151l-.571-.385c-2.077-1.393-3.437-2.45-3.378-4.373.044-1.405,1.855-2.369,2.631-2.718a11.964,11.964,0,0,1,4.3-.838c1.3-.094,2.671-.141,4.185-.141,3.737,0,7.1.179,10.36.352,2.844.151,5.785.308,9.01.349,7.563.1,13.574-.038,20.086-.454.489-.031.962-.065,1.421-.1,3.342-.262,5.323-.32,7.089,1.51a7.98,7.98,0,0,1,.952,1.22c2.338,3.619,4.356,9.118,3.007,13.7a4.811,4.811,0,0,1-3.3,3.464,5.291,5.291,0,0,1-4.967-1.965,19.141,19.141,0,0,1-1.539-2,18,18,0,0,0-1.463-1.9c-3.535-3.8-10.021-4.064-14.758-4.254-1.312-.054-2.648-.059-3.974-.02l-.638.011a6.343,6.343,0,0,0-2.582.368c-2.89,1.366-3.295,4.892-3.653,8l-.127,1.071c-.1.769-.2,1.538-.24,2.314-.052.917-.034,1.865-.015,2.783l.009.5a4.419,4.419,0,0,0,2.089,3.874,4.2,4.2,0,0,0,4.283-.213,20.061,20.061,0,0,0,3.2-2.556l.194-.179a3.614,3.614,0,0,1,3.265-1.095,4.321,4.321,0,0,1,2.877,2.492q.94,2.034,1.89,4.059c1.1,2.362,2.208,4.727,3.272,7.108.817,1.829.934,3.151.389,4.42a3.418,3.418,0,0,1-2.043,1.966,3.141,3.141,0,0,1-2.612-.3,13.882,13.882,0,0,1-2.054-1.589l-.552-.48c-2.166-1.894-4.4-3.852-7.475-4.41a13.582,13.582,0,0,0-3.575-.154,3.1,3.1,0,0,0-2.944,2.879,14.3,14.3,0,0,0-.187,2.231q-.007,1.679,0,3.354l.082,3.027c.141,4.283.271,7.9.43,8.7a4.557,4.557,0,0,0,1.136,2.361,7.529,7.529,0,0,0,2.82,1.291c2.58.787,3.832,2.064,3.832,3.906a4.2,4.2,0,0,1-1.2,3,6.106,6.106,0,0,1-3.336,1.771A45.839,45.839,0,0,1,120.424,155.665ZM113.1,85.576c-1.482,0-2.824.046-4.1.139a10.88,10.88,0,0,0-3.858.726c-1.2.541-1.86,1.218-1.871,1.582-.038,1.217.871,1.963,2.808,3.263l.576.389c3.147,2.158,4.022,5.124,4.5,8.008a136.607,136.607,0,0,1,.85,36.171l-.062.609c-.293,2.942-.661,6.6-2.6,9.214a12.147,12.147,0,0,1-2.068,2.053c-1.237,1.037-1.7,1.514-1.7,2.4,0,.581,0,1.94,2.6,2.841,2.72.93,6.843,1.4,12.251,1.4a44.788,44.788,0,0,0,10.864-.933,4.871,4.871,0,0,0,2.662-1.39,2.932,2.932,0,0,0,.852-2.115c0-.533,0-1.782-2.913-2.669a8.44,8.44,0,0,1-3.329-1.586,5.774,5.774,0,0,1-1.516-3.033c-.168-.844-.281-3.55-.459-8.929l-.082-3.048c0-1.137,0-2.256,0-3.376a15.734,15.734,0,0,1,.2-2.432,4.4,4.4,0,0,1,4.116-3.961,14.926,14.926,0,0,1,3.911.169c3.419.624,5.795,2.7,8.091,4.708l.553.482a12.886,12.886,0,0,0,1.855,1.447,1.873,1.873,0,0,0,1.549.191,2.153,2.153,0,0,0,1.268-1.251c.4-.931.293-1.88-.381-3.386-1.06-2.376-2.16-4.733-3.263-7.088q-.949-2.03-1.892-4.065a3.016,3.016,0,0,0-1.969-1.77,2.379,2.379,0,0,0-2.125.781l-.181.169a21.3,21.3,0,0,1-3.421,2.725,5.491,5.491,0,0,1-5.585.227,5.7,5.7,0,0,1-2.742-4.974l-.009-.5c-.019-.942-.038-1.916.018-2.882.044-.805.146-1.605.247-2.4l.126-1.055c.376-3.275.845-7.35,4.383-9.023a7.418,7.418,0,0,1,3.121-.491l.612-.011c1.36-.04,2.725-.031,4.066.02,4.96.2,11.754.474,15.651,4.666a18.905,18.905,0,0,1,1.573,2.032,17.886,17.886,0,0,0,1.435,1.865c.438.475,2.007,2,3.719,1.584a3.582,3.582,0,0,0,2.359-2.574c1.225-4.162-.671-9.256-2.854-12.634a6.713,6.713,0,0,0-.8-1.023c-1.309-1.356-2.7-1.378-6.062-1.12-.465.036-.943.07-1.437.1-6.459.413-12.684.557-20.186.456-3.25-.042-6.2-.2-9.061-.35C120.157,85.753,116.808,85.576,113.1,85.576Z" transform="translate(-101.983 -84.285)" fill="#ee562a"/>
      </g>
      <g id="Group_7" data-name="Group 7" transform="translate(184.423 3.224)">
        <path id="Path_9" data-name="Path 9" d="M438,151.183l-.042-.019a34.217,34.217,0,0,1-8.823-6.319L412.957,127.8l2.738-2.884a17.888,17.888,0,0,1,7.761-5.328,22.638,22.638,0,0,0,3.8-1.7c.493-.279.923-.754.735-2.345a1.488,1.488,0,0,0-1.2-1.407,17.107,17.107,0,0,0-3.7-.6c-3.5-.064-7-.052-10.5-.036l-2.56.009a8.961,8.961,0,0,0-1.712.146,2.79,2.79,0,0,0-2.473,2.049c-.235.8-.143,1.463,1.022,2.5l.537.484c2.03,1.9,2.116,3.477.3,5.446-1.177,1.284-2.406,2.521-3.637,3.757l-1.439,1.452c-.273.279-.555.556-.9.9l-2.927,2.9,0-12.85q0-12.8-.021-25.591a14.423,14.423,0,0,0-.233-2.538,2.734,2.734,0,0,0-1-1.849,2.828,2.828,0,0,0-2.168-.1l-.2.053a5.35,5.35,0,0,0-.974.326l-3.62,1.859c-3.63,1.858-7.384,3.78-11.008,5.774A2.28,2.28,0,0,0,378.181,100a2.431,2.431,0,0,0,1.333,1.942,6.908,6.908,0,0,1,3.3,6.322c-.035,3.772-.026,7.543-.019,11.314l.007,5.232q0,9.686.012,19.369l0,.413c.014,2.126.034,5.036-2.653,6.54a6.867,6.867,0,0,0-1.068.809c0,.027.017.053.017.08v3.567c.665.592,1.266.852,2.919.858l2.477.011c3.61.019,7.213.035,10.819-.012a46.5,46.5,0,0,0,5.419-.44c1.449-.189,2.272-.807,2.445-1.837a2.546,2.546,0,0,0-1.24-2.769,8.178,8.178,0,0,1-3.084-8.772,2.221,2.221,0,0,1,.6-1.008c.687-.638,1.369-1.263,2.081-1.915l1.709-1.567.916.937c3.421,3.5,9.115,9.521,13.29,13.958a10.5,10.5,0,0,0,7.564,3.287c3.206.018,7.176.032,9.556.018a14.661,14.661,0,0,0,2.639-.331c1.725-.332,2.552-1.207,2.459-2.605A2.48,2.48,0,0,0,438,151.183Z" transform="translate(-377.535 -89.414)" fill="#ee562a"/>
        <path id="Path_10" data-name="Path 10" d="M389.7,156.8q-2.756,0-5.514-.019l-2.475-.01a4.353,4.353,0,0,1-3.346-1.024l-.217-.192-.03-4.185.236-.239a7.4,7.4,0,0,1,1.175-.883c2.355-1.32,2.338-3.9,2.324-5.975l0-.415q-.019-9.689-.013-19.372l-.006-5.545c-.008-3.669-.015-7.338.019-11.008a6.3,6.3,0,0,0-3-5.773,3.039,3.039,0,0,1-1.63-2.507,2.879,2.879,0,0,1,1.725-2.305c3.675-2.023,7.58-4.021,11.025-5.783l3.618-1.857a5.607,5.607,0,0,1,1.07-.368l.232-.062a3.419,3.419,0,0,1,2.68.175,3.257,3.257,0,0,1,1.29,2.28,15.215,15.215,0,0,1,.242,2.652q.024,12.8.021,25.592l0,11.3,1.971-1.953c.281-.279.521-.515.751-.752l1.445-1.456c1.225-1.23,2.448-2.462,3.62-3.738,1.562-1.7,1.492-2.889-.271-4.539l-.528-.478c-1.219-1.088-1.558-1.977-1.209-3.165a3.438,3.438,0,0,1,2.966-2.5,9.453,9.453,0,0,1,1.838-.159l2.557-.009c3.576-.013,7.068-.027,10.511.035a17.759,17.759,0,0,1,3.845.614,2.126,2.126,0,0,1,1.689,1.96c.183,1.544-.142,2.464-1.057,2.981a23.377,23.377,0,0,1-3.905,1.75,17.216,17.216,0,0,0-7.485,5.143l-2.333,2.459,15.757,16.6a33.431,33.431,0,0,0,8.626,6.175l.044.021A3.142,3.142,0,0,1,440,153.04c.066,1-.232,2.753-2.981,3.283a15.109,15.109,0,0,1-2.759.342c-2.383.013-6.351,0-9.562-.017a11.157,11.157,0,0,1-8.031-3.49c-3.393-3.606-9.63-10.214-13.281-13.949l-.479-.49-1.248,1.144c-.71.651-1.39,1.276-2.078,1.912a1.6,1.6,0,0,0-.412.706A7.53,7.53,0,0,0,402,150.554a3.186,3.186,0,0,1,1.506,3.4c-.155.925-.8,2.086-3,2.371a47.01,47.01,0,0,1-5.492.445C393.245,156.8,391.473,156.8,389.7,156.8Zm-10.263-1.835a3.363,3.363,0,0,0,2.279.515l2.476.011c3.608.02,7.206.035,10.809-.013a45.554,45.554,0,0,0,5.343-.435c1.71-.22,1.847-1.035,1.892-1.3a1.9,1.9,0,0,0-.973-2.133,8.839,8.839,0,0,1-3.336-9.475,2.868,2.868,0,0,1,.773-1.3c.693-.644,1.376-1.27,2.089-1.922l2.17-1.991,1.352,1.386c3.659,3.742,9.9,10.357,13.3,13.965a9.853,9.853,0,0,0,7.1,3.085c3.208.017,7.175.033,9.55.017a14.069,14.069,0,0,0,2.521-.32c1.807-.348,1.985-1.213,1.937-1.928a1.852,1.852,0,0,0-1.3-1.675l-.05-.024a34.936,34.936,0,0,1-9.012-6.455l-16.6-17.491,3.16-3.329a18.426,18.426,0,0,1,8.019-5.493A22.039,22.039,0,0,0,426.617,117c.216-.121.575-.324.411-1.707a.856.856,0,0,0-.72-.858,16.533,16.533,0,0,0-3.555-.576c-3.437-.063-6.78-.054-10.483-.036l-2.559.009a8.282,8.282,0,0,0-1.589.134c-1.331.263-1.754.829-1.98,1.6-.125.427-.255.87.833,1.841l.539.488c2.306,2.16,2.41,4.118.348,6.362-1.14,1.243-2.282,2.4-3.656,3.776l-1.439,1.451c-.232.239-.476.48-.764.765l-4.17,4.131,0-14.4q0-12.8-.021-25.59a13.858,13.858,0,0,0-.222-2.425,2.087,2.087,0,0,0-.708-1.417,2.21,2.21,0,0,0-1.652-.023l-.205.056a5.027,5.027,0,0,0-.846.276l-3.618,1.858c-3.437,1.76-7.334,3.752-10.992,5.767-.658.362-1.043.805-1.057,1.217-.015.434.373.949,1.039,1.379a7.508,7.508,0,0,1,3.594,6.869c-.034,3.665-.026,7.328-.019,10.993l.006,5.545q0,9.688.013,19.369l0,.412c.014,2.157.035,5.416-2.984,7.108a5.03,5.03,0,0,0-.738.542Z" transform="translate(-377.217 -89.096)" fill="#ee562a"/>
      </g>
    </g>
    <ellipse id="Ellipse_1" data-name="Ellipse 1" cx="12.474" cy="12.474" rx="12.474" ry="12.474" transform="translate(309.394 101.051)" fill="#ee562a"/>
  </g>
</svg>
